<svg id="visual" viewBox="0 0 960 540" width="960" height="540" xmlns="http://www.w3.org/2000/svg" xmlns:xlink="http://www.w3.org/1999/xlink" version="1.1"><rect x="0" y="0" width="960" height="540" fill="#FAFAFA"></rect><defs><linearGradient id="grad1_0" x1="43.8%" y1="0%" x2="100%" y2="100%"><stop offset="14.444444444444446%" stop-color="#fafafa" stop-opacity="1"></stop><stop offset="85.55555555555554%" stop-color="#fafafa" stop-opacity="1"></stop></linearGradient></defs><defs><linearGradient id="grad2_0" x1="0%" y1="0%" x2="56.3%" y2="100%"><stop offset="14.444444444444446%" stop-color="#fafafa" stop-opacity="1"></stop><stop offset="85.55555555555554%" stop-color="#fafafa" stop-opacity="1"></stop></linearGradient></defs><g transform="translate(960, 0)"><path d="M0 270C-24.1 239.1 -48.3 208.3 -82.7 199.6C-117 190.8 -161.6 204.2 -190.9 190.9C-220.2 177.6 -234.2 137.7 -244.8 101.4C-255.5 65.1 -262.7 32.6 -270 0L0 0Z" fill="#def7e4"></path></g><g transform="translate(0, 540)"><path d="M0 -270C27.2 -244.4 54.3 -218.8 85.7 -206.9C117.1 -195.1 152.8 -197.1 182.4 -182.4C212.1 -167.8 235.8 -136.5 249.4 -103.3C263 -70.1 266.5 -35.1 270 0L0 0Z" fill="#def7e4"></path></g></svg>